# xmcd
#
# Track frame offsets: 
#        150
#        34647
#        46129
#        60771
#        77953
#        90757
#        113454
#        127416
#        143498
#        158660
#        174402
#        186971
#        199475
#        212115
#        224944
#        238018
#        248985
#        267127
#
# Disc length: 3741 seconds
#
# Revision: 4
# Processed by: cddbd v1.5.1PL0 Copyright (c) Steve Scherf et al.
# Submitted via: ExactAudioCopy v0.95a5
#
DISCID=fc0e9b12
DTITLE=Various Artist - Jazz and Blues Collection Complete CD 1
DYEAR=1900
DGENRE=
TTITLE0=Ben Webster - Honeysuckle Rose
TTITLE1=Erroll Garner - She's Funny That Way
TTITLE2=Louis Armstrong - Basin Street Blues
TTITLE3=Glenn Miller - I'm Gettind Sentimental Over You
TTITLE4=Jelly Roll Morton - King Porter Stomp
TTITLE5=Big Bill Broonzy - Ridin' On Down
TTITLE6=Artie Shaw - My Heart Belongs To Daddy
TTITLE7=Billie Holiday - Do Nothin' Till You Hear From Me
TTITLE8=Louis Armstrong - Mack The Knife
TTITLE9=Glen Miller - Chattanooga Choo Choo
TTITLE10=Coleman Hawkins - Wrap Your Troubles In My Dreams
TTITLE11=Dizzy Gillespie - All These Things You Are
TTITLE12=Ella Fitzgerald - I've Got A Pebble In My Shoe
TTITLE13=Glenn Miller - Little Brown Jug
TTITLE14=Teddy Wilson - I'm Confessin' That I Love You
TTITLE15=Woody Herman - Blowin' Up A Storm
TTITLE16=George Lewis - Panama
TTITLE17=Duke Ellington - It Don't Mean A Thing (If It Ain't Got That 
TTITLE17=Swing)
EXTD=
EXTT0=
EXTT1=
EXTT2=
EXTT3=
EXTT4=
EXTT5=
EXTT6=
EXTT7=
EXTT8=
EXTT9=
EXTT10=
EXTT11=
EXTT12=
EXTT13=
EXTT14=
EXTT15=
EXTT16=
EXTT17=
PLAYORDER=
